<svg width="32" height="24" viewBox="0 0 32 24" fill="none" xmlns="http://www.w3.org/2000/svg">
<g clip-path="url(#clip0_zh)">
<rect width="32" height="24" fill="#DE2910"/>
<polygon points="6,3 7.1,6.4 10.7,6.4 7.8,8.5 8.9,11.9 6,9.8 3.1,11.9 4.2,8.5 1.3,6.4 4.9,6.4" fill="#FFDE00"/>
<polygon points="13,1.5 13.7,3.6 15.9,3.6 14.1,4.9 14.8,7 13,5.7 11.2,7 11.9,4.9 10.1,3.6 12.3,3.6" fill="#FFDE00"/>
<polygon points="16,4.5 16.7,6.6 18.9,6.6 17.1,7.9 17.8,10 16,8.7 14.2,10 14.9,7.9 13.1,6.6 15.3,6.6" fill="#FFDE00"/>
<polygon points="16,8.5 16.7,10.6 18.9,10.6 17.1,11.9 17.8,14 16,12.7 14.2,14 14.9,11.9 13.1,10.6 15.3,10.6" fill="#FFDE00"/>
<polygon points="13,11.5 13.7,13.6 15.9,13.6 14.1,14.9 14.8,17 13,15.7 11.2,17 11.9,14.9 10.1,13.6 12.3,13.6" fill="#FFDE00"/>
</g>
<defs>
<clipPath id="clip0_zh">
<rect width="32" height="24" fill="white"/>
</clipPath>
</defs>
</svg>
